HIERARCHY
ROOT Hips
{
 OFFSET 0.000000 0.000000 0.000000
 CHANNELS 6 Xposition Yposition Zposition Yrotation Xrotation Zrotation
 JOINT Chest
 {
  OFFSET 0.000000 9.585900 0.002600
  CHANNELS 3 Yrotation Xrotation Zrotation
  JOINT Chest2
  {
   OFFSET 0.000000 9.601200 -0.005300
   CHANNELS 3 Yrotation Xrotation Zrotation
   JOINT Chest3
   {
    OFFSET 0.000000 9.561800 0.000000
    CHANNELS 3 Yrotation Xrotation Zrotation
    JOINT Chest4
    {
     OFFSET 0.000000 9.552100 0.000000
     CHANNELS 3 Yrotation Xrotation Zrotation
     JOINT Neck
     {
      OFFSET 0.000000 14.453000 0.000000
      CHANNELS 3 Yrotation Xrotation Zrotation
      JOINT Head
      {
       OFFSET 0.000000 8.936500 -0.011300
       CHANNELS 3 Yrotation Xrotation Zrotation
       End Site
       {
        OFFSET 0.000000 17.073600 -0.006000
       }
      }
     }
     JOINT RightCollar
     {
      OFFSET -2.921100 9.558500 0.000000
      CHANNELS 3 Yrotation Xrotation Zrotation
      JOINT RightShoulder
      {
       OFFSET -13.519700 0.000000 0.000000
       CHANNELS 3 Yrotation Xrotation Zrotation
       JOINT RightElbow
       {
        OFFSET 0.000000 -29.696600 0.000000
        CHANNELS 3 Yrotation Xrotation Zrotation
        JOINT RightWrist
        {
         OFFSET 0.000000 -24.004700 0.000000
         CHANNELS 3 Yrotation Xrotation Zrotation
         End Site
         {
          OFFSET 0.000000 -17.728500 0.000000
         }
        }
       }
      }
     }
     JOINT LeftCollar
     {
      OFFSET 2.921100 9.558500 0.000000
      CHANNELS 3 Yrotation Xrotation Zrotation
      JOINT LeftShoulder
      {
       OFFSET 13.519700 0.000000 0.000000
       CHANNELS 3 Yrotation Xrotation Zrotation
       JOINT LeftElbow
       {
        OFFSET 0.000000 -29.696600 0.000000
        CHANNELS 3 Yrotation Xrotation Zrotation
        JOINT LeftWrist
        {
         OFFSET 0.000000 -24.004700 0.000000
         CHANNELS 3 Yrotation Xrotation Zrotation
         End Site
         {
          OFFSET 0.000000 -17.728500 0.000000
         }
        }
       }
      }
     }
    }
   }
  }
 }
 JOINT RightHip
 {
  OFFSET -7.771700 -0.012900 -0.001300
  CHANNELS 3 Yrotation Xrotation Zrotation
  JOINT RightKnee
  {
   OFFSET 0.000000 -40.869800 0.001200
   CHANNELS 3 Yrotation Xrotation Zrotation
   JOINT RightAnkle
   {
    OFFSET 0.000000 -39.717900 0.002100
    CHANNELS 3 Yrotation Xrotation Zrotation
    JOINT RightToe
    {
     OFFSET 0.000000 -4.965400 11.033500
     CHANNELS 3 Yrotation Xrotation Zrotation
     End Site
     {
      OFFSET 0.000000 -1.423100 5.872300
     }
    }
   }
  }
 }
 JOINT LeftHip
 {
  OFFSET 7.771700 -0.012900 -0.001300
  CHANNELS 3 Yrotation Xrotation Zrotation
  JOINT LeftKnee
  {
   OFFSET 0.000000 -40.869800 0.001200
   CHANNELS 3 Yrotation Xrotation Zrotation
   JOINT LeftAnkle
   {
    OFFSET 0.000000 -39.717900 0.002100
    CHANNELS 3 Yrotation Xrotation Zrotation
    JOINT LeftToe
    {
     OFFSET 0.000000 -4.965400 11.033500
     CHANNELS 3 Yrotation Xrotation Zrotation
     End Site
     {
      OFFSET 0.000000 -1.423100 5.872300
     }
    }
   }
  }
 }
}
MOTION
Frames: 5
Frame Time: 0.008333
-16.351312 58.603317 55.460983 174.574638 -27.271722 -5.001718 4.424954 21.424869 4.966986 0.507543 3.000873 0.393921 0.836309 4.876569 0.662312 3.544023 18.312579 2.941058 -0.387291 16.522587 -1.177037 -0.298781 -5.186952 -2.090533 3.736109 -4.237526 -0.393116 14.877619 -18.249240 -20.579483 145.024652 -77.262689 -113.113255 19.883911 -22.868001 -47.469926 -7.438577 -4.670704 -2.569878 4.076490 -12.500169 1.945320 160.810505 -83.363380 163.176231 -5.627666 0.933770 6.765487 6.144342 -43.490925 3.244031 -3.644522 67.023565 -6.517504 4.808754 7.618250 8.707742 -0.467925 0.663845 -0.205185 -9.280993 -50.372170 8.202347 24.119892 65.770609 23.018437 -11.166956 32.107004 3.806011 0.121513 -15.984572 -6.211060
-16.351478 58.602269 55.459900 174.564985 -27.279013 -5.004018 4.436842 21.427912 4.968459 0.507593 3.001726 0.396951 0.835793 4.872949 0.658962 3.544290 18.309890 2.940989 -0.385291 16.498397 -1.189341 -0.288639 -5.232745 -2.118185 3.752489 -4.241655 -0.401358 14.867308 -18.244218 -20.574084 145.031410 -77.257263 -113.121814 19.884099 -22.866096 -47.476402 -7.432925 -4.676554 -2.575273 4.074257 -12.495100 1.945539 160.764582 -83.358120 163.219256 -5.626733 0.940079 6.766947 6.152942 -43.483351 3.252396 -3.647876 67.026248 -6.521514 4.806264 7.610818 8.711443 -0.468733 0.660098 -0.207128 -9.279955 -50.365869 8.213265 24.115278 65.776228 23.010091 -11.148860 32.092378 3.826834 0.106334 -15.962200 -6.218773
-16.352514 58.601400 55.458370 174.556650 -27.285937 -5.004263 4.447938 21.430158 4.966649 0.506943 3.000573 0.397320 0.834377 4.866232 0.654759 3.543701 18.311668 2.948517 -0.382436 16.474065 -1.204808 -0.276930 -5.278339 -2.147496 3.759801 -4.236501 -0.402809 14.865796 -18.248712 -20.582098 145.045101 -77.256092 -113.129819 19.903280 -22.874922 -47.498521 -7.427126 -4.673125 -2.574791 4.076260 -12.497339 1.937869 160.738631 -83.350987 163.242981 -5.623500 0.939153 6.764163 6.170505 -43.476117 3.252763 -3.652676 67.030310 -6.522147 4.795394 7.602334 8.711893 -0.460970 0.659336 -0.204952 -9.283475 -50.360061 8.222715 24.114611 65.782266 23.001141 -11.121789 32.080707 3.856490 0.089006 -15.943099 -6.231298
-16.354809 58.600358 55.456989 174.547960 -27.288910 -4.998464 4.455811 21.428884 4.958355 0.506898 2.997539 0.392745 0.832828 4.867794 0.660415 3.539643 18.300562 2.943071 -0.375245 16.440327 -1.224263 -0.268333 -5.310103 -2.164073 3.762035 -4.242432 -0.407568 14.871638 -18.243437 -20.584201 145.066161 -77.265884 -113.159548 19.895581 -22.878640 -47.498878 -7.420199 -4.657989 -2.568014 4.073631 -12.506410 1.929880 160.756920 -83.355880 163.226304 -5.627295 0.911127 6.774564 6.185821 -43.471190 3.248663 -3.644205 67.034113 -6.516858 4.786114 7.588168 8.717483 -0.456761 0.662713 -0.205378 -9.297179 -50.354105 8.231156 24.135745 65.779802 23.006339 -11.094256 32.066238 3.882467 0.067874 -15.922536 -6.241813
-16.356139 58.599025 55.456619 174.540253 -27.284712 -4.999504 4.459743 21.420064 4.950916 0.511050 3.000861 0.401597 0.828890 4.863061 0.655145 3.543071 18.302149 2.947329 -0.373494 16.427556 -1.232199 -0.261835 -5.378831 -2.196101 3.763441 -4.245360 -0.409655 14.876552 -18.246091 -20.587819 145.077021 -77.265873 -113.168309 19.891711 -22.876657 -47.503678 -7.417847 -4.664013 -2.568217 4.071112 -12.505601 1.927251 160.772726 -83.357404 163.212077 -5.628963 0.903205 6.776724 6.191637 -43.472871 3.256692 -3.628858 67.035053 -6.512777 4.781806 7.573860 8.735481 -0.462285 0.665987 -0.211473 -9.308657 -50.359343 8.248730 24.133995 65.783272 22.995514 -11.086121 32.061320 3.899711 0.067630 -15.914140 -6.254533
